<svg width="63" height="63" viewBox="0 0 63 63" fill="none" xmlns="http://www.w3.org/2000/svg">
<path fill-rule="evenodd" clip-rule="evenodd" d="M31.5 0C14.175 0 0 14.5313 0 32.2917C0 46.6212 9.05625 58.7306 21.4594 62.9689C23.0344 63.1707 23.625 62.3634 23.625 61.3543C23.625 60.547 23.625 58.5288 23.625 55.9051C14.7656 57.9233 12.9937 51.6668 12.9937 51.6668C11.6156 48.0339 9.45 47.0248 9.45 47.0248C6.49688 45.0066 9.64688 45.0066 9.64688 45.0066C12.7969 45.2084 14.5688 48.2358 14.5688 48.2358C17.325 53.0795 21.8531 51.6668 23.8219 50.8595C24.0188 48.8412 25.0031 47.4285 25.7906 46.6212C18.7031 45.8139 11.4188 42.9884 11.4188 30.6771C11.4188 27.2461 12.6 24.2188 14.5688 21.9987C14.175 21.1914 13.1906 17.9623 14.9625 13.5222C14.9625 13.5222 17.5219 12.7149 23.625 16.7513C26.1844 15.944 28.7438 15.7422 31.5 15.7422C34.2562 15.7422 36.8156 16.1459 39.375 16.7513C45.4781 12.513 48.0375 13.3203 48.0375 13.3203C49.8094 17.7604 48.6281 20.9896 48.4313 21.7969C50.4 24.017 51.5813 26.8425 51.5813 30.4753C51.5813 42.7865 44.2969 45.6121 37.2094 46.4194C38.3906 47.4285 39.375 49.4467 39.375 52.4741C39.375 56.7123 39.375 60.3452 39.375 61.3543C39.375 62.1616 39.9656 63.1707 41.5406 62.9689C53.9438 58.7306 63 46.6212 63 32.2917C63 14.5313 48.825 0 31.5 0Z" fill="url(#paint0_linear)"/>
<path fill-rule="evenodd" clip-rule="evenodd" d="M31.5 0C14.175 0 0 14.5313 0 32.2917C0 46.6212 9.05625 58.7306 21.4594 62.9689C23.0344 63.1707 23.625 62.3634 23.625 61.3543C23.625 60.547 23.625 58.5288 23.625 55.9051C14.7656 57.9233 12.9937 51.6668 12.9937 51.6668C11.6156 48.0339 9.45 47.0248 9.45 47.0248C6.49688 45.0066 9.64688 45.0066 9.64688 45.0066C12.7969 45.2084 14.5688 48.2358 14.5688 48.2358C17.325 53.0795 21.8531 51.6668 23.8219 50.8595C24.0188 48.8412 25.0031 47.4285 25.7906 46.6212C18.7031 45.8139 11.4188 42.9884 11.4188 30.6771C11.4188 27.2461 12.6 24.2188 14.5688 21.9987C14.175 21.1914 13.1906 17.9623 14.9625 13.5222C14.9625 13.5222 17.5219 12.7149 23.625 16.7513C26.1844 15.944 28.7438 15.7422 31.5 15.7422C34.2562 15.7422 36.8156 16.1459 39.375 16.7513C45.4781 12.513 48.0375 13.3203 48.0375 13.3203C49.8094 17.7604 48.6281 20.9896 48.4313 21.7969C50.4 24.017 51.5813 26.8425 51.5813 30.4753C51.5813 42.7865 44.2969 45.6121 37.2094 46.4194C38.3906 47.4285 39.375 49.4467 39.375 52.4741C39.375 56.7123 39.375 60.3452 39.375 61.3543C39.375 62.1616 39.9656 63.1707 41.5406 62.9689C53.9438 58.7306 63 46.6212 63 32.2917C63 14.5313 48.825 0 31.5 0Z" fill="#424242"/>
<defs>
<linearGradient id="paint0_linear" x1="-2.65851e-06" y1="53.7049" x2="80.103" y2="12.4705" gradientUnits="userSpaceOnUse">
<stop stop-color="#334D50"/>
<stop offset="1" stop-color="#CBCAA5"/>
</linearGradient>
</defs>
</svg>
