<svg width="63" height="63" viewBox="0 0 63 63" fill="black" style="fill:black" xmlns="http://www.w3.org/2000/svg">
<path d="M31.5 0C14.175 0 0 14.175 0 31.5C0 48.825 14.175 63 31.5 63C48.825 63 63 48.825 63 31.5C63 14.175 48.825 0 31.5 0ZM22.8375 47.25H16.3406V26.1844H22.8375V47.25ZM19.4906 23.4281C17.5219 23.4281 15.75 21.6562 15.75 19.4906C15.75 17.5219 17.5219 15.75 19.4906 15.75C21.6562 15.75 23.2313 17.5219 23.2313 19.4906C23.2313 21.6562 21.6562 23.4281 19.4906 23.4281ZM47.25 47.25H40.7531V37.0125C40.7531 34.65 40.7531 31.5 37.4062 31.5C34.0594 31.5 33.4688 34.0594 33.4688 36.8156V47.25H26.9719V26.1844H33.2719V29.1375C34.0594 27.5625 36.225 25.7906 39.375 25.7906C46.0687 25.7906 47.25 30.1219 47.25 35.8313V47.25Z" fill="url(#paint0_linear)"/>
<path d="M31.5 0C14.175 0 0 14.175 0 31.5C0 48.825 14.175 63 31.5 63C48.825 63 63 48.825 63 31.5C63 14.175 48.825 0 31.5 0ZM22.8375 47.25H16.3406V26.1844H22.8375V47.25ZM19.4906 23.4281C17.5219 23.4281 15.75 21.6562 15.75 19.4906C15.75 17.5219 17.5219 15.75 19.4906 15.75C21.6562 15.75 23.2313 17.5219 23.2313 19.4906C23.2313 21.6562 21.6562 23.4281 19.4906 23.4281ZM47.25 47.25H40.7531V37.0125C40.7531 34.65 40.7531 31.5 37.4062 31.5C34.0594 31.5 33.4688 34.0594 33.4688 36.8156V47.25H26.9719V26.1844H33.2719V29.1375C34.0594 27.5625 36.225 25.7906 39.375 25.7906C46.0687 25.7906 47.25 30.1219 47.25 35.8313V47.25Z" fill="#424242"/>
<defs>
<linearGradient id="paint0_linear" x1="-2.34693e-07" y1="31.5" x2="63" y2="0" gradientUnits="userSpaceOnUse">
<stop stop-color="#0052D4"/>
<stop offset="0.5" stop-color="#4364F7"/>
<stop offset="1" stop-color="#6FB1FC"/>
</linearGradient>
</defs>
</svg>
