<svg width="65" height="65" viewBox="0 0 65 65" fill="none" xmlns="http://www.w3.org/2000/svg">
<path fill-rule="evenodd" clip-rule="evenodd" d="M32.5 65C50.4492 65 65 50.4493 65 32.5C65 14.5507 50.4492 0 32.5 0C14.5508 0 0 14.5507 0 32.5C0 50.4493 14.5508 65 32.5 65ZM15.0176 20.125C15.0176 17.8563 16.5752 16 18.5 16H46.5C48.4248 16 50 17.8563 50 20.125V44.875C50 47.1437 48.4248 49 46.5 49H18.5C16.5752 49 15 47.1437 15 44.875L15.0176 20.125ZM32.5 34.5625L18.5 24.25V44.875H46.5V24.25L32.5 34.5625ZM18.5 20.125L32.5 30.4375L46.5 20.125H18.5Z" fill="#424242"/>
</svg>
